<svg width="39" height="39" viewBox="0 0 39 39" fill="none" xmlns="http://www.w3.org/2000/svg">
<path fill-rule="evenodd" clip-rule="evenodd" d="M26.7638 39V23.8973H31.8338L32.5923 18.0122H26.7618V14.2545C26.7618 12.5502 27.2357 11.388 29.681 11.388H32.7971V6.123C31.2879 5.9624 29.7712 5.88429 28.2536 5.889C23.7608 5.889 20.6856 8.63265 20.6856 13.6695V18.0122H15.6V23.8973H20.6837V39H2.1528C0.9633 39 0 38.0367 0 36.8472V2.1528C0 0.9633 0.9633 0 2.1528 0H36.8472C38.0367 0 39 0.9633 39 2.1528V36.8472C39 38.0367 38.0367 39 36.8472 39H26.7638Z" fill="#E1F7F5"/>
</svg>
