<svg width="82" height="82" viewBox="0 0 82 82" fill="none" xmlns="http://www.w3.org/2000/svg">
<rect width="82" height="82" rx="10" fill="#1E0342"/>
<path d="M20 62V57.3333H24.6667V20H48V22.3333H57.3333V57.3333H62V62H52.6667V27H48V62H20ZM38.6667 43.3333C39.3278 43.3333 39.8823 43.1093 40.3303 42.6613C40.7783 42.2133 41.0016 41.6596 41 41C40.9984 40.3404 40.7744 39.7867 40.328 39.3387C39.8816 38.8907 39.3278 38.6667 38.6667 38.6667C38.0056 38.6667 37.4518 38.8907 37.0053 39.3387C36.5589 39.7867 36.3349 40.3404 36.3333 41C36.3318 41.6596 36.5558 42.2141 37.0053 42.6637C37.4549 43.1132 38.0087 43.3364 38.6667 43.3333Z" fill="#E1F7F5"/>
</svg>
