<svg width="82" height="82" viewBox="0 0 82 82" fill="none" xmlns="http://www.w3.org/2000/svg">
<rect width="82" height="82" rx="10" fill="#1E0342"/>
<path d="M63.96 33.3165C63.1947 26.9574 58.0287 22.1399 51.5233 22.1399C48.2707 22.1399 45.018 23.4888 42.722 25.8012C41.3827 27.1501 40.426 28.499 39.852 30.2333L50.5667 37.3632V37.5559H56.3067V41.4099H50.5667V45.2639H56.3067V49.1179H50.5667V52.9719H56.3067V56.8259H50.5667V60.6799H63.96V33.3165ZM43.4873 31.7749C44.6353 28.3063 47.888 25.9939 51.5233 25.9939C55.1587 25.9939 58.4113 28.3063 59.5593 31.7749H43.4873ZM18.04 39.4829V60.6799H27.6067V47.1909H37.1733V60.6799H46.74V39.4829L32.39 29.8479L18.04 39.4829Z" fill="#E1F7F5"/>
</svg>
