<svg width="82" height="82" viewBox="0 0 82 82" fill="none" xmlns="http://www.w3.org/2000/svg">
<rect y="-6.10352e-05" width="82" height="82" rx="10" fill="#1E0342"/>
<path fill-rule="evenodd" clip-rule="evenodd" d="M23.6 23.6C23.6 21.2926 24.5166 19.0797 26.1481 17.4481C27.7797 15.8166 29.9926 14.9 32.3 14.9H61.3C63.6074 14.9 65.8202 15.8166 67.4518 17.4481C69.0834 19.0797 70 21.2926 70 23.6V58.4C70 60.7073 69.0834 62.9202 67.4518 64.5518C65.8202 66.1834 63.6074 67.1 61.3 67.1H51.121C52.092 65.4145 52.6021 63.5032 52.6 61.5581V45.7879C52.5972 44.2917 52.295 42.8112 51.7113 41.4336C51.1276 40.056 50.2741 38.8092 49.2012 37.7665L37.6012 26.4246C33.808 22.7126 28.037 22.1123 23.6 24.6179V23.6ZM55.5 26.5C55.5 25.7308 55.8055 24.9932 56.3494 24.4494C56.8932 23.9055 57.6308 23.6 58.4 23.6C59.1691 23.6 59.9096 23.9055 60.4535 24.4494C60.9973 24.9932 61.3029 25.7308 61.3029 26.5C61.3029 27.2691 60.9973 28.0067 60.4535 28.5506C59.9096 29.0944 59.172 29.4 58.4029 29.4C57.6337 29.4 56.8932 29.0944 56.3494 28.5506C55.8055 28.0067 55.5 27.2691 55.5 26.5ZM46.8 23.6C46.0308 23.6 45.2932 23.9055 44.7494 24.4494C44.2055 24.9932 43.9 25.7308 43.9 26.5C43.9 27.2691 44.2055 28.0067 44.7494 28.5506C45.2932 29.0944 46.0308 29.4 46.8 29.4H46.8029C47.572 29.4 48.3096 29.0944 48.8535 28.5506C49.3973 28.0067 49.7029 27.2691 49.7029 26.5C49.7029 25.7308 49.3973 24.9932 48.8535 24.4494C48.3096 23.9055 47.572 23.6 46.8029 23.6H46.8ZM55.5 41C55.5 40.2308 55.8055 39.4932 56.3494 38.9494C56.8932 38.4055 57.6308 38.1 58.4 38.1C59.1691 38.1 59.9096 38.4055 60.4535 38.9494C60.9973 39.4932 61.3029 40.2308 61.3029 41C61.3029 41.7691 60.9973 42.5067 60.4535 43.0506C59.9096 43.5944 59.172 43.9 58.4029 43.9C57.6337 43.9 56.8932 43.5944 56.3494 43.0506C55.8055 42.5067 55.5 41.7691 55.5 41ZM58.4 52.6C57.6308 52.6 56.8932 52.9055 56.3494 53.4494C55.8055 53.9932 55.5 54.7308 55.5 55.5C55.5 56.2691 55.8055 57.0067 56.3494 57.5506C56.8932 58.0944 57.6308 58.4 58.4 58.4C59.1691 58.4 59.9096 58.0944 60.4535 57.5506C60.9973 57.0067 61.3029 56.2691 61.3029 55.5C61.3029 54.7308 60.9973 53.9932 60.4535 53.4494C59.9096 52.9055 59.1691 52.6 58.4 52.6Z" fill="#E1F7F5"/>
<path fill-rule="evenodd" clip-rule="evenodd" d="M23.2491 31.4502C24.8806 29.8192 27.0931 28.903 29.4 28.903C31.7069 28.903 33.9194 29.8192 35.5509 31.4502L44.2509 40.1502C45.8826 41.7814 46.7995 43.9939 46.8 46.3011V58.3999C46.8 60.7073 45.8834 62.9202 44.2518 64.5517C42.6203 66.1833 40.4074 67.0999 38.1 67.0999H32.3V58.3999C32.3 57.6308 31.9945 56.8931 31.4506 56.3493C30.9068 55.8054 30.1691 55.4999 29.4 55.4999C28.6309 55.4999 27.8932 55.8054 27.3494 56.3493C26.8055 56.8931 26.5 57.6308 26.5 58.3999V67.0999H20.7C18.3926 67.0999 16.1797 66.1833 14.5482 64.5517C12.9166 62.9202 12 60.7073 12 58.3999V46.3011C12.0013 43.9949 12.9181 41.7836 14.5491 40.1531L23.2491 31.4502Z" fill="#E1F7F5"/>
</svg>
