<svg width="82" height="82" viewBox="0 0 82 82" fill="none" xmlns="http://www.w3.org/2000/svg">
<rect width="82" height="82" rx="10" fill="#1E0342"/>
<path fill-rule="evenodd" clip-rule="evenodd" d="M22.4488 41C22.4498 36.7266 23.9256 32.5845 26.6269 29.2732C29.3282 25.9619 33.0895 23.6843 37.2756 22.825V33.067L23.5587 47.3315C22.8224 45.3018 22.4468 43.1591 22.4488 41ZM27.6257 53.8529C30.2273 56.5663 33.593 58.4239 37.2756 59.1788V43.8156L27.6257 53.8529ZM44.7207 43.8156V59.1788C48.4047 58.4248 51.7718 56.5672 54.3743 53.8529L44.7207 43.8156ZM58.4376 47.3352C59.3472 44.8298 59.7065 42.1579 59.491 39.5012C59.2755 36.8445 58.4903 34.2654 57.1887 31.9393C55.8872 29.6133 54.0999 27.5949 51.9484 26.0215C49.7969 24.4481 47.3318 23.3566 44.7207 22.8212V33.0708L58.4376 47.3352ZM15 41C15 37.5856 15.6725 34.2047 16.9791 31.0502C18.2858 27.8958 20.2009 25.0295 22.6152 22.6152C25.0295 20.2009 27.8958 18.2858 31.0502 16.9791C34.2047 15.6725 37.5856 15 41 15C44.4144 15 47.7953 15.6725 50.9498 16.9791C54.1042 18.2858 56.9705 20.2009 59.3848 22.6152C61.7991 25.0295 63.7142 27.8958 65.0209 31.0502C66.3275 34.2047 67 37.5856 67 41C67 47.8956 64.2607 54.5088 59.3848 59.3848C54.5088 64.2607 47.8956 67 41 67C34.1044 67 27.4912 64.2607 22.6152 59.3848C17.7393 54.5088 15 47.8956 15 41Z" fill="#E1F7F5"/>
</svg>
