<svg width="368" height="172" viewBox="0 0 368 172" fill="none" xmlns="http://www.w3.org/2000/svg">
<g clip-path="url(#clip0_38_475)">
<path d="M162.639 119.603H138.432V143.702H162.639V119.603Z" fill="#1E0342"/>
<path d="M191.96 119.603H167.754V143.702H191.96V119.603Z" fill="#1E0342"/>
<path d="M162.639 147.895H138.432V171.994H162.639V147.895Z" fill="#1E0342"/>
<path d="M191.96 147.895H167.754V171.994H191.96V147.895Z" fill="#1E0342"/>
<path d="M353.88 172H302.826C299.627 172 296.514 170.975 293.948 169.073L180.614 85.0319C169.727 76.9606 154.635 77.6308 144.52 86.6415L59.3567 162.456C46.7155 173.696 27.4343 174.784 13.4639 163.803C4.672 156.894 0.00561523 145.999 0.00561523 134.852V50.6044C0.00561523 45.2197 4.39006 40.849 9.80445 40.849H49.0285C54.4372 40.849 58.8274 45.214 58.8274 50.6044V82.6431C58.8274 83.3076 59.6157 83.6571 60.1105 83.216L136.821 14.9109C149.382 3.75777 168.318 2.90424 181.816 12.9174L362.292 146.721C373.173 154.786 367.442 171.994 353.88 171.994V172Z" fill="#1E0342"/>
<path d="M49.0229 0H9.79883C4.38709 0 0 4.36765 0 9.75541V25.4225C0 30.8103 4.38709 35.1779 9.79883 35.1779H49.0229C54.4347 35.1779 58.8218 30.8103 58.8218 25.4225V9.75541C58.8218 4.36765 54.4347 0 49.0229 0Z" fill="#1E0342"/>
</g>
<defs>
<clipPath id="clip0_38_475">
<rect width="368" height="172" fill="white"/>
</clipPath>
</defs>
</svg>
